<?xml version="1.0" encoding="UTF-8"?>
<!-- Generator: visioncortex VTracer -->
<svg id="svg" version="1.1" xmlns="http://www.w3.org/2000/svg" style="display: block;" viewBox="0 0 264 269"><path d="M0,0 L8,0 L8,2 L14,3 L22,8 L24,12 L24,47 L20,51 L14,54 L12,54 L12,56 L-14,56 L-19,52 L-20,49 L-23,46 L-27,35 L-27,18 L-23,10 L-18,7 L-9,4 L-3,2 Z " transform="translate(134,105)" style="fill: #FFFFFF;"/><path d="M0,0 L34,0 L50,3 L54,5 L66,7 L76,12 L81,17 L84,20 L84,22 L86,22 L90,29 L96,37 L102,49 L105,54 L105,56 L107,56 L107,58 L111,59 L112,66 L109,66 L108,72 L104,77 L101,89 L89,98 L87,98 L86,101 L77,105 L71,109 L70,110 L60,112 L49,117 L44,118 L-18,118 L-30,115 L-47,112 L-56,109 L-62,105 L-67,102 L-77,97 L-77,95 L-83,93 L-89,89 L-95,77 L-99,71 L-99,63 L-95,53 L-88,43 L-82,36 L-74,30 L-69,29 L-69,27 L-59,22 L-49,16 L-37,10 L-27,6 L-2,1 Z M3,4 L-9,7 L-27,11 L-45,19 L-53,24 L-68,33 L-73,36 L-79,40 L-88,51 L-93,61 L-95,68 L-88,79 L-85,86 L-64,98 L-59,101 L-53,105 L-40,109 L-21,112 L-15,114 L41,114 L50,111 L59,107 L67,106 L67,104 L72,102 L81,98 L83,97 L83,94 L87,93 L91,90 L91,88 L95,87 L98,83 L101,72 L105,67 L108,66 L107,62 L102,59 L96,49 L89,35 L83,28 L76,18 L70,14 L63,11 L51,9 L44,6 L31,4 Z " transform="translate(131,71)" style="fill: #FFFFFF;"/><path d="M0,0 L5,0 L5,4 L-10,12 L-20,20 L-28,25 L-35,32 L-44,39 L-58,47 L-62,50 L-67,50 L-67,46 L-53,37 L-44,32 L-29,18 L-20,13 L-10,5 Z " transform="translate(67,191)" style="fill: #FFFFFF;"/><path d="M0,0 L5,0 L5,4 L-11,11 L-22,15 L-31,21 L-42,32 L-49,36 L-53,36 L-52,31 L-43,25 L-32,14 L-18,7 L-8,3 Z " transform="translate(259,26)" style="fill: #FFFFFF;"/><path d="M0,0 L5,1 L13,14 L14,32 L18,44 L24,58 L26,60 L26,64 L21,63 L17,57 L11,42 L9,35 L8,17 L0,4 Z " transform="translate(166,205)" style="fill: #FFFFFF;"/><path d="M0,0 L4,0 L3,5 L-3,14 L-8,20 L-16,26 L-25,37 L-32,47 L-34,51 L-38,51 L-37,44 L-29,33 L-17,19 L-10,14 L-3,4 Z " transform="translate(96,198)" style="fill: #FFFFFF;"/><path d="M0,0 L5,0 L16,21 L25,32 L34,43 L37,46 L37,48 L39,48 L39,52 L34,52 L22,38 L11,24 L0,4 Z " transform="translate(34,23)" style="fill: #FFFFFF;"/><path d="M0,0 L4,0 L3,5 L-1,13 L-5,18 L-13,24 L-20,32 L-30,51 L-34,51 L-33,45 L-24,28 L-15,18 L-8,13 L-3,5 Z " transform="translate(204,0)" style="fill: #FFFFFF;"/><path d="M0,0 L6,1 L15,17 L20,27 L27,37 L33,44 L33,51 L29,51 L27,45 L22,40 L13,27 L5,11 L3,8 L3,5 L0,4 Z " transform="translate(67,9)" style="fill: #FFFFFF;"/><path d="M0,0 L5,0 L15,5 L21,15 L27,29 L32,35 L32,40 L28,40 L28,38 L26,38 L20,28 L16,18 L11,10 L0,4 Z " transform="translate(198,201)" style="fill: #FFFFFF;"/><path d="M0,0 L4,0 L2,20 L0,29 L-2,47 L-7,47 L-5,26 L-2,9 L-1,1 Z " transform="translate(144,7)" style="fill: #FFFFFF;"/><path d="M0,0 L4,0 L4,46 L3,50 L-1,50 Z " transform="translate(142,207)" style="fill: #FFFFFF;"/></svg>